
<svg viewBox="0 0 603.8 601" version="1.1" xmlns="http://www.w3.org/2000/svg" id="Layer_1">
  
  <defs>
    <style>
      .st0 {
        fill: #fff;
      }
    </style>
  </defs>
  <path d="M603.8.5v600.5H.5V.5s603.4,0,603.4,0ZM264.3,265.2l-28.1-71.5c-8.3-19.4-26.8-47.4-46.4-56.2-23.5-10.5-55.6-10.4-69.5,14.6-31.4,56.3,51.9,109.6,96.2,124.1,12,3.9,24.7,5.5,36.8,9.2l.7,1.5c-24.2,42.2-47.8,103.5-100.3,116.5-23.9,5.9-52.7,1.4-58.7-26.3-5.5-25.3,6.2-49,35-44.6,12.7,1.9,23,9.2,34.8,13.2,1,.3,2.8,1.5,3.5.3.3-2.3-8.8-11-10.8-12.7-36.9-31-79-11.7-76,37.2s23.8,47.5,50.1,49.2c47.8,3.1,84.7-42,106.9-78.7,7.9-13,13.5-28,21.3-40.6s1.8-2.4,2.7-3.5c.8,0,5.4,13.8,6,15.6,7.2,21.3,14.2,43.9,20.4,65.5s10,43.2,14.8,65.8c.7,3.2,5.6,26.3,8.3,26.3.6-.4.9-1,1.3-1.6,3.5-6.2,1.9-25.3,2.3-33.2,1.2-22,5.6-48.6,9.7-70.4,2.8-14.8,5.5-31.7,14.5-44l28.8,52.2c15,18.3,29.4,43.4,55.6,45.1,23.1,1.6,52.8-6.7,63.2-29.4,12-26.2,3.1-47.5-14.7-67.5-20.4-22.8-39.9-31.6-70.5-34-16-1.3-32.2.7-48.2-1.5-1.6-1.7,3.9-12.7,5-14.9,16-31.6,60.5-82.2,93.3-96.1s42.7-7.7,52.2,8.2c8.6,14.4,4.7,36-11.8,42.7-7.6,3.1-15.8,2.8-23.5,4.8s-8.8,2.3-4.8,4.7c5.1,3.1,25.3,1.8,31.6.5,42.5-8.3,31.5-68.9-4.4-79.5s-83.1,31.3-106.1,57.7-33.9,44.6-43.8,70.7c-.6.7-2.1.3-2.7-.1-1.3-.9-6.3-16.9-7.2-19.7-8-26.8-13.9-56.6-13.2-84.7s1.5-15.4,1-23-.5-8-2.6-7.8l-2.2,3c-10.1,27.7-20.1,55.4-32.5,82.1s-7,16.3-11.2,23.3c-.6,1-5.5,8.4-6.6,7.5Z"></path>
  <polygon points=".5 601 0 601 0 0 603.8 0 603.8 .5 .5 .5 .5 601" class="st0"></polygon>
  <path d="M264.3,265.2c1.1.8,6-6.6,6.6-7.5,4.2-7,7.7-15.8,11.2-23.3,12.4-26.8,22.4-54.4,32.5-82.1l2.2-3c2.2-.2,2.5,6.3,2.6,7.8.5,7.6-.8,15.4-1,23-.7,28.1,5.2,57.8,13.2,84.7.8,2.8,5.8,18.8,7.2,19.7s2.2.9,2.7.1c9.9-26.1,25.5-49.8,43.8-70.7s67.7-69,106.1-57.7,46.9,71.2,4.4,79.5-26.5,2.6-31.6-.5c-4-2.4,2.7-4.1,4.8-4.7,7.7-1.9,16-1.7,23.5-4.8,16.5-6.7,20.4-28.3,11.8-42.7-9.5-15.9-37.2-14.6-52.2-8.2-32.8,13.9-77.3,64.5-93.3,96.1-1.1,2.2-6.6,13.2-5,14.9,15.9,2.1,32.1.2,48.2,1.5,30.6,2.4,50.1,11.3,70.5,34,17.9,19.9,26.7,41.3,14.7,67.5-10.4,22.7-40,31-63.2,29.4-26.2-1.8-40.6-26.9-55.6-45.1l-28.8-52.2c-9,12.3-11.7,29.2-14.5,44-4.1,21.8-8.5,48.4-9.7,70.4s1.2,27-2.3,33.2c-.4.6-.7,1.1-1.3,1.6-2.7,0-7.6-23.1-8.3-26.3-4.8-22.6-8.4-43.4-14.8-65.8s-13.2-44.2-20.4-65.5-5.2-15.6-6-15.6c-1,1.1-2,2.3-2.7,3.5-7.8,12.6-13.4,27.5-21.3,40.6-22.2,36.7-59.1,81.8-106.9,78.7-26.3-1.7-48.5-22.6-50.1-49.2-3-48.9,39.1-68.2,76-37.2,2,1.7,11.1,10.4,10.8,12.7-.7,1.1-2.5,0-3.5-.3-11.7-3.9-22.1-11.2-34.8-13.2-28.8-4.4-40.4,19.3-35,44.6,6,27.8,34.7,32.3,58.7,26.3,52.5-13,76.2-74.3,100.3-116.5l-.7-1.5c-12.1-3.7-24.8-5.3-36.8-9.2-44.4-14.5-127.6-67.7-96.2-124.1,13.9-25,45.9-25.1,69.5-14.6,19.7,8.8,38.2,36.8,46.4,56.2l28.1,71.5ZM251.8,271c-4.6-18.8-11.5-36.9-19-54.7-11.4-27.1-26.1-55.3-53-69.8-13.3-7.2-28.3-5-39.8,4.8-26.5,22.7-3.5,59.3,16.8,77.2s61.8,37.5,85.3,41.8c1.6.3,8.9,1.7,9.7.6ZM326.1,283.5c-3.3-10.7-7.4-21.2-9.9-32-3.9-16.5-6.2-33.4-6.9-50.2,0-.6.4-1.8-.5-1.7-3.5,13.3-10.1,25.5-16.2,37.7-6.5,13-13.6,25.8-20.2,38.8.3.5.7.5,1.2.7,2.2.9,8.9,1.7,11.7,2.2,13.5,2.4,27.2,3.7,40.9,4.5ZM309.3,415.8c1.5-10.1,1.6-20.3,2.9-30.4,1.3-9.5,3.4-21.2,5.4-30.5,3.2-14.2,9.5-26.9,14.2-40.5,1.6-4.5,2.8-6.3.4-11s-13.3-8.7-19.9-9.8c-9.4-1.6-22.1-3.3-31.6-3.9s-9.8-.7-7.7,7.7,7.4,19.6,10.5,28.8c5.5,16,11.1,33.5,15.4,49.9,3.2,12.4,5.2,25.6,9.2,37.8.2.6.4,2,1.1,2ZM350.2,301.3c-2.3,8.8,3,17.3,6.9,24.9s11.7,20.9,17.8,30.6c16.9,27,35.2,60.6,73.3,46.1,42.8-16.3,27.9-70.4-5.2-88.8-25.1-14-49.9-9.7-76.8-11.4-5.3-.3-10.6-2.2-16-1.4Z" class="st0"></path>
  <path d="M251.8,271c-.8,1.1-8.1-.3-9.7-.6-23.4-4.4-67.4-26-85.3-41.8s-43.3-54.5-16.8-77.2c11.5-9.8,26.5-12,39.8-4.8,26.9,14.6,41.6,42.7,53,69.8,7.5,17.8,14.4,35.9,19,54.7Z"></path>
  <path d="M350.2,301.3c5.4-.8,10.7,1.1,16,1.4,26.9,1.7,51.8-2.6,76.8,11.4,33.1,18.5,48,72.5,5.2,88.8-38.1,14.5-56.4-19.1-73.3-46.1-6.1-9.8-12.5-20.4-17.8-30.6s-9.2-16.1-6.9-24.9Z"></path>
  <path d="M309.3,415.8c-.7,0-.9-1.4-1.1-2-4-12.1-6-25.4-9.2-37.8-4.3-16.4-9.9-33.8-15.4-49.9-3.2-9.2-8.2-19.6-10.5-28.8s-.4-8.1,7.7-7.7,22.2,2.3,31.6,3.9,16.5,3.4,19.9,9.8,1.2,6.5-.4,11c-4.7,13.6-11,26.3-14.2,40.5-2.1,9.3-4.1,21.1-5.4,30.5-1.4,10.1-1.4,20.3-2.9,30.4Z"></path>
  <path d="M326.1,283.5c-13.7-.8-27.4-2.1-40.9-4.5s-9.5-1.4-11.7-2.2-.9-.2-1.2-.7c6.7-13,13.7-25.7,20.2-38.8,6.1-12.2,12.8-24.4,16.2-37.7.8-.1.5,1.1.5,1.7.6,16.9,3,33.8,6.9,50.2,2.5,10.9,6.7,21.4,9.9,32Z"></path>
</svg>
